<?xml version="1.0" encoding="UTF-8" standalone="no"?><!-- Generator: Gravit.io --><svg xmlns="http://www.w3.org/2000/svg" xmlns:xlink="http://www.w3.org/1999/xlink" style="isolation:isolate" viewBox="0 0 2977.257 755.47" width="2977.257pt" height="755.47pt"><defs><clipPath id="_clipPath_5Q5lST57Jc0KjdHG6cEmufboOe3NmWDN"><rect width="2977.257" height="755.47"/></clipPath></defs><g clip-path="url(#_clipPath_5Q5lST57Jc0KjdHG6cEmufboOe3NmWDN)"><g><path d=" M 869.032 99.762 C 888.341 38.183 936.698 1.41 1008.981 0 L 1016.752 0 C 1072.948 1.386 1111.451 37.114 1111.451 95.357 C 1111.451 168.348 1060.866 257.3 950.522 257.3 C 890.764 257.3 854.777 225.045 854.777 170.043 C 854.777 165.627 855.118 159.86 855.459 156.126 L 932.533 156.126 C 932.533 181.921 939.658 197.542 964.78 197.542 C 998.058 197.542 1014.352 175.481 1022.499 148.652 L 970.218 148.652 L 979.717 104.174 L 1030.305 104.174 C 1030.305 74.639 1019.109 59.7 997.036 59.7 C 971.913 59.7 952.899 74.298 945.096 99.762 L 869.032 99.762 L 869.032 99.762 L 869.032 99.762 L 869.032 99.762 L 869.032 99.762 L 869.032 99.762 L 869.032 99.762 L 869.032 99.762 L 869.032 99.762 L 869.032 99.762 L 869.032 99.762 L 869.032 99.762 Z  M 2629.947 99.762 C 2630.299 97.726 2630.632 95.005 2630.632 92.64 C 2630.632 71.589 2618.069 59.7 2595.335 59.7 C 2543.383 59.7 2531.493 138.81 2531.493 159.86 C 2531.493 181.592 2540.336 197.542 2569.179 197.542 C 2594.982 197.542 2610.947 179.553 2619.094 156.126 L 2696.168 156.126 C 2675.447 219.274 2622.153 257.3 2557.641 257.3 C 2489.395 257.3 2451.381 221.995 2451.381 163.251 C 2451.381 68.301 2525.452 1.989 2601.309 0 L 2609.159 0 C 2674.832 1.285 2707.362 31.982 2707.362 84.481 C 2707.362 89.238 2707.021 94.335 2706.351 99.762 L 2629.947 99.762 L 2629.947 99.762 L 2629.947 99.762 L 2629.947 99.762 L 2629.947 99.762 L 2629.947 99.762 L 2629.947 99.762 Z  M 1574.499 99.762 C 1574.84 97.726 1575.181 95.005 1575.181 92.64 C 1575.181 71.589 1562.621 59.7 1539.864 59.7 C 1487.935 59.7 1476.045 138.81 1476.045 159.86 C 1476.045 181.592 1484.862 197.542 1513.728 197.542 C 1539.535 197.542 1555.485 179.553 1563.632 156.126 L 1640.694 156.126 C 1619.999 219.274 1566.693 257.3 1502.182 257.3 C 1433.948 257.3 1395.922 221.995 1395.922 163.251 C 1395.922 68.301 1469.993 1.989 1545.849 0 L 1553.699 0 C 1619.385 1.285 1651.914 31.982 1651.914 84.481 C 1651.914 89.238 1651.573 94.335 1650.889 99.762 L 1574.499 99.762 L 1574.499 99.762 L 1574.499 99.762 L 1574.499 99.762 L 1574.499 99.762 L 1574.499 99.762 L 1574.499 99.762 L 1574.499 99.762 L 1574.499 99.762 L 1574.499 99.762 L 1574.499 99.762 Z  M 1942.516 6.393 L 1890.223 250.849 L 1810.1 250.849 L 1850.161 63.442 L 1774.453 63.442 L 1734.391 250.849 L 1654.268 250.849 L 1706.551 6.393 L 1942.516 6.393 L 1942.516 6.393 L 1942.516 6.393 L 1942.516 6.393 L 1942.516 6.393 L 1942.516 6.393 L 1942.516 6.393 L 1942.516 6.393 L 1942.516 6.393 L 1942.516 6.393 Z  M 2046.384 117.762 L 2079.654 117.762 C 2098.327 117.762 2118.705 106.554 2118.705 84.822 C 2118.705 65.811 2097.654 63.442 2080.667 63.442 L 2057.922 63.442 L 2046.384 117.762 L 2046.384 117.762 L 2046.384 117.762 L 2046.384 117.762 L 2046.384 117.762 L 2046.384 117.762 L 2046.384 117.762 L 2046.384 117.762 L 2046.384 117.762 L 2046.384 117.762 Z  M 1233.991 85.504 L 1321.248 6.393 L 1415.297 6.393 L 1306.308 98.407 L 1372.518 250.849 L 1276.432 250.849 L 1238.406 153.408 L 1215.32 173.434 L 1198.685 250.849 L 1118.561 250.849 L 1170.845 6.393 L 1250.966 6.393 L 1233.991 85.504 L 1233.991 85.504 L 1233.991 85.504 L 1233.991 85.504 L 1233.991 85.504 L 1233.991 85.504 L 1233.991 85.504 L 1233.991 85.504 L 1233.991 85.504 L 1233.991 85.504 L 1233.991 85.504 L 1233.991 85.504 Z  M 2448.334 6.393 L 2436.113 63.442 L 2316.952 63.442 L 2309.478 98.407 L 2410.32 98.407 L 2398.098 155.445 L 2297.256 155.445 L 2289.101 193.811 L 2413.026 193.811 L 2400.807 250.849 L 2196.755 250.849 L 2249.05 6.393 L 2448.334 6.393 L 2448.334 6.393 L 2448.334 6.393 L 2448.334 6.393 L 2448.334 6.393 L 2448.334 6.393 L 2448.334 6.393 L 2448.334 6.393 Z  M 2899.854 99.762 C 2900.183 97.726 2900.527 95.005 2900.527 92.64 C 2900.527 71.589 2887.964 59.7 2865.221 59.7 C 2813.269 59.7 2801.391 138.81 2801.391 159.86 C 2801.391 181.592 2810.22 197.542 2839.085 197.542 C 2864.878 197.542 2880.842 179.553 2888.989 156.126 L 2966.052 156.126 C 2945.342 219.274 2892.039 257.3 2827.536 257.3 C 2759.291 257.3 2721.268 221.995 2721.268 163.251 C 2721.268 68.301 2795.347 1.989 2871.204 0 L 2879.057 0 C 2944.582 1.273 2977.1 31.845 2977.257 84.106 L 2977.257 85.378 C 2977.213 89.873 2976.872 94.676 2976.235 99.762 L 2899.854 99.762 L 2899.854 99.762 L 2899.854 99.762 L 2899.854 99.762 L 2899.854 99.762 L 2899.854 99.762 Z  M 0 755.47 C 0 755.47 219.071 452.635 597.066 287.27 C 598.138 290.488 584.177 405.396 583.105 417.204 C 178.257 535.331 0 755.47 0 755.47 L 0 755.47 L 0 755.47 L 0 755.47 L 0 755.47 Z  M 631.428 274.378 L 779.625 228.205 L 681.9 346.331 L 631.428 274.378 L 631.428 274.378 L 631.428 274.378 L 631.428 274.378 Z  M 789.025 234.112 L 762.082 376.391 L 719.221 319.752 L 789.025 234.112 L 789.025 234.112 L 789.025 234.112 Z  M 709.242 330.585 C 710.311 331.666 756.527 391.435 756.527 391.435 L 604.939 411.481 L 666.506 341.324 L 676.771 353.977 C 678.967 356.674 685.462 357.356 688.159 355.171 L 709.242 330.585 L 709.242 330.585 Z  M 2017.863 250.849 L 1937.739 250.849 L 1990.02 6.393 L 2107.837 6.393 C 2168.265 6.393 2196.778 30.161 2196.778 68.869 C 2196.778 132.358 2150.267 174.8 2074.556 174.8 L 2034.154 174.8 L 2017.863 250.849 L 2017.863 250.849 L 2017.863 250.849 L 2017.863 250.849 L 2017.863 250.849 L 2017.863 250.849 L 2017.863 250.849 L 2017.863 250.849 L 2017.863 250.849 L 2017.863 250.849 Z  M 626.776 283.684 L 660.783 332.006 L 607.808 396.803 L 626.776 283.684 Z " fill-rule="evenodd" fill="rgb(239,126,26)"/><path d=" M 260.236 587.941 C 274.55 571.478 389.102 521.37 389.102 521.37 L 366.187 628.754 L 253.08 628.754 L 260.236 587.941 Z " fill-rule="evenodd" fill="rgb(36,68,181)"/><path d=" M 1089.093 357.117 L 1027.084 632.383 L 936.095 632.383 L 955.812 544.844 L 976.349 474.492 L 836.243 632.383 L 747.256 632.383 L 809.254 357.117 L 900.254 357.117 L 880.526 444.671 L 859.988 515.02 L 1000.106 357.117 L 1089.093 357.117 L 1089.093 357.117 L 1089.093 357.117 L 1089.093 357.117 L 1089.093 357.117 L 1089.093 357.117 L 1089.093 357.117 L 1089.093 357.117 L 1089.093 357.117 Z  M 1206.491 453.081 L 1296.285 453.081 L 1318.017 357.117 L 1413.046 357.117 L 1351.036 632.383 L 1256.02 632.383 L 1281.78 517.307 L 1191.995 517.307 L 1166.225 632.383 L 1071.209 632.383 L 1133.218 357.117 L 1228.235 357.117 L 1206.491 453.081 L 1206.491 453.081 L 1206.491 453.081 L 1206.491 453.081 L 1206.491 453.081 L 1206.491 453.081 L 1206.491 453.081 L 1206.491 453.081 L 1206.491 453.081 Z  M 1702.171 357.117 L 1687.674 421.358 L 1546.35 421.358 L 1537.499 460.726 L 1657.078 460.726 L 1642.585 524.952 L 1523.002 524.952 L 1513.343 568.154 L 1660.3 568.154 L 1645.803 632.383 L 1403.83 632.383 L 1465.816 357.117 L 1702.171 357.117 L 1702.171 357.117 L 1702.171 357.117 L 1702.171 357.117 L 1702.171 357.117 L 1702.171 357.117 L 1702.171 357.117 L 1702.171 357.117 Z  M 1856.773 632.383 L 1761.757 632.383 L 1809.258 421.358 L 1723.903 421.358 L 1738.396 357.117 L 2004.141 357.117 L 1989.632 421.358 L 1904.286 421.358 L 1856.773 632.383 L 1856.773 632.383 L 1856.773 632.383 L 1856.773 632.383 L 1856.773 632.383 L 1856.773 632.383 L 1856.773 632.383 Z  M 2324.622 357.117 L 2262.612 632.383 L 2171.624 632.383 L 2191.352 544.844 L 2211.878 474.492 L 2071.769 632.383 L 1982.793 632.383 L 2044.794 357.117 L 2135.794 357.117 L 2116.051 444.671 L 2095.517 515.02 L 2235.634 357.117 L 2324.622 357.117 L 2324.622 357.117 L 2324.622 357.117 L 2324.622 357.117 L 2324.622 357.117 L 2324.622 357.117 Z  M 2455.867 446.206 L 2559.336 357.117 L 2670.862 357.117 L 2541.633 460.726 L 2620.14 632.383 L 2506.202 632.383 L 2461.098 522.666 L 2433.724 545.216 L 2413.996 632.383 L 2318.977 632.383 L 2380.977 357.117 L 2475.994 357.117 L 2455.867 446.206 L 2455.867 446.206 L 2455.867 446.206 L 2455.867 446.206 L 2455.867 446.206 Z  M 2834.739 538.721 L 2825.876 440.087 L 2774.742 538.721 L 2834.739 538.721 L 2834.739 538.721 L 2834.739 538.721 L 2834.739 538.721 L 2834.739 538.721 Z  M 331.109 245.751 L 445.65 245.751 L 427.751 340.244 C 427.751 340.244 293.162 429.767 295.315 427.626 C 297.464 425.476 331.109 245.751 331.109 245.751 L 331.109 245.751 L 331.109 245.751 Z  M 445.65 499.888 C 445.65 499.888 490.751 478.317 559.486 459.087 C 560.919 461.953 640.382 628.754 640.382 628.754 L 500.06 625.888 L 445.65 499.888 L 445.65 499.888 Z  M 2893.915 357.117 L 2935.785 632.383 L 2841.18 632.383 L 2838.357 596.064 L 2743.728 596.064 L 2724.407 632.383 L 2631.404 632.383 L 2797.281 357.117 L 2893.915 357.117 L 2893.915 357.117 L 2893.915 357.117 L 2893.915 357.117 L 2893.915 357.117 Z  M 490.751 305.882 C 496.486 300.866 557.336 245.751 557.336 245.751 L 643.956 245.751 L 490.751 305.882 Z " fill-rule="evenodd" fill="rgb(36,68,181)"/></g></g></svg>