<?xml version="1.0" encoding="UTF-8" standalone="no"?><!-- Generator: Gravit.io --><svg xmlns="http://www.w3.org/2000/svg" xmlns:xlink="http://www.w3.org/1999/xlink" style="isolation:isolate" viewBox="0 0 791.131 407.174" width="480px" height="280px"><defs><clipPath id="_clipPath_prsAsthwQB55HfmImvu3IPLzssiUoNyx"><rect width="791.131" height="407.174"/></clipPath></defs><g clip-path="url(#_clipPath_prsAsthwQB55HfmImvu3IPLzssiUoNyx)"><path d=" M 441.106 144.132 L 441.106 144.132 L 437.883 87.856 L 441.106 144.132 L 441.106 144.132 L 441.106 144.132 L 441.106 144.132 L 441.106 144.132 L 441.106 144.132 L 441.106 144.132 Z  M 387.263 203.022 L 441.106 144.132 L 387.263 203.022 L 387.263 203.022 L 387.263 203.022 L 387.263 203.022 L 387.263 203.022 L 387.263 203.022 L 387.263 203.022 L 387.263 203.022 Z  M 387.263 203.022 L 449.14 303.955 L 387.263 203.022 L 387.263 203.022 L 387.263 203.022 L 387.263 203.022 L 387.263 203.022 L 387.263 203.022 L 387.263 203.022 L 387.263 203.022 L 387.263 203.022 L 387.263 203.022 L 387.263 203.022 Z  M 449.14 307.16 L 513.639 344.688 L 449.14 307.16 L 449.14 307.16 L 449.14 307.16 L 449.14 307.16 L 449.14 307.16 L 449.14 307.16 L 449.14 307.16 L 449.14 307.16 L 449.14 307.16 L 449.14 307.16 Z  M 549.847 398.65 L 513.639 348.267 L 549.847 398.65 L 549.847 398.65 L 549.847 398.65 L 549.847 398.65 L 549.847 398.65 L 549.847 398.65 L 549.847 398.65 L 549.847 398.65 L 549.847 398.65 Z  M 387.263 203.022 L 211.808 215.306 L 387.263 203.022 L 387.263 203.022 L 387.263 203.022 L 387.263 203.022 L 387.263 203.022 L 387.263 203.022 L 387.263 203.022 L 387.263 203.022 L 387.263 203.022 L 387.263 203.022 L 387.263 203.022 L 387.263 203.022 Z  M 211.808 215.306 L 22.787 262.596 L 211.808 215.306 L 211.808 215.306 L 211.808 215.306 L 211.808 215.306 L 211.808 215.306 L 211.808 215.306 L 211.808 215.306 L 211.808 215.306 L 211.808 215.306 L 211.808 215.306 L 211.808 215.306 L 211.808 215.306 Z  M 441.106 144.132 L 441.106 144.132 L 496.929 153.083 L 441.106 144.132 L 441.106 144.132 L 441.106 144.132 L 441.106 144.132 L 441.106 144.132 L 441.106 144.132 Z  M 499.269 153.083 L 626.619 49.077 L 499.269 153.083 L 499.269 153.083 L 499.269 153.083 L 499.269 153.083 L 499.269 153.083 Z  M 626.005 49.077 L 713.975 28.384 L 626.005 49.077 L 626.005 49.077 L 626.005 49.077 L 626.005 49.077 Z  M 387.263 203.022 L 483.013 211.557 L 387.263 203.022 L 387.263 203.022 L 387.263 203.022 Z  M 496.929 153.547 L 483.013 211.486 L 496.929 153.547 L 496.929 153.547 Z  M 483.013 211.557 L 565.495 244.77 L 483.013 211.557 Z " fill-rule="evenodd" fill="none" vector-effect="non-scaling-stroke" stroke-width="1" stroke="rgb(36,68,181)" stroke-linejoin="miter" stroke-linecap="square" stroke-miterlimit="3"/><text transform="matrix(0.898,0,0,0.898,129.273,198.421)" style="font-family:'Arial';font-weight:700;font-size:20px;font-style:italic;fill:#2444b5;stroke:none;">Барабинск</text><text transform="matrix(0.898,0,0,0.898,555.933,388.159)" style="font-family:'Arial';font-weight:700;font-size:20px;font-style:italic;fill:#2444b5;stroke:none;">Горно-Алтайск</text><text transform="matrix(0.898,0,0,0.898,273.468,184.426)" style="font-family:'Arial';font-weight:700;font-size:20px;font-style:italic;fill:#2444b5;stroke:none;">Новосибирск</text><text transform="matrix(0.898,0,0,0.898,412.489,71.564)" style="font-family:'Arial';font-weight:700;font-size:20px;font-style:italic;fill:#2444b5;stroke:none;">Томск</text><text transform="matrix(0.898,0,0,0.898,508.972,164.546)" style="font-family:'Arial';font-weight:700;font-size:20px;font-style:italic;fill:#2444b5;stroke:none;">Кемерово</text><text transform="matrix(0.898,0,0,0.898,547.155,217.358)" style="font-family:'Arial';font-weight:700;font-size:20px;font-style:italic;fill:#2444b5;stroke:none;">Новокузнецк</text><text transform="matrix(0.898,0,0,0.898,450.224,293.463)" style="font-family:'Arial';font-weight:700;font-size:20px;font-style:italic;fill:#2444b5;stroke:none;">Барнаул</text><text transform="matrix(0.898,0,0,0.898,520.363,334.585)" style="font-family:'Arial';font-weight:700;font-size:20px;font-style:italic;fill:#2444b5;stroke:none;">Бийск</text><text transform="matrix(0.898,0,0,0.898,586.273,25.342)" style="font-family:'Arial';font-weight:700;font-size:20px;font-style:italic;fill:#2444b5;stroke:none;">Ачинск</text><text transform="matrix(0.898,0,0,0.898,683.346,18.105)" style="font-family:'Arial';font-weight:700;font-size:20px;font-style:italic;fill:#2444b5;stroke:none;">Красноярск</text><text transform="matrix(0.898,0,0,0.898,2.676,242.36)" style="font-family:'Arial';font-weight:700;font-size:20px;font-style:italic;fill:#2444b5;stroke:none;">Омск</text><g><path d=" M 31.311 260.981 C 31.311 265.689 27.495 269.505 22.787 269.505 C 18.079 269.505 14.263 265.689 14.263 260.981 C 14.263 256.273 18.079 252.457 22.787 252.457 C 27.495 252.457 31.311 256.273 31.311 260.981 Z " fill="rgb(239,126,26)"/><path d=" M 17.195 257.19 L 15.877 267.593 L 27.225 266.223 L 29.453 253.479 L 17.195 257.19 Z " fill="rgb(255,255,255)"/><path d=" M 18.284 257.81 L 27.828 254.792 L 21.534 262.522 L 18.284 257.81 Z " fill-rule="evenodd" fill="rgb(239,126,26)"/><path d=" M 28.433 255.18 L 26.699 264.485 L 23.937 260.782 L 28.433 255.18 Z " fill-rule="evenodd" fill="rgb(239,126,26)"/><path d=" M 23.298 261.49 C 23.365 261.559 26.339 265.473 26.339 265.473 L 16.583 266.784 L 20.546 262.191 L 21.204 263.019 C 21.342 263.195 21.765 263.241 21.939 263.098 L 23.298 261.49 Z " fill-rule="evenodd" fill="rgb(239,126,26)"/><path d=" M 17.987 258.42 L 20.175 261.582 L 16.764 265.821 L 17.987 258.42 Z " fill-rule="evenodd" fill="rgb(239,126,26)"/></g><g><path d=" M 220.332 215.197 C 220.332 219.905 216.516 223.72 211.808 223.72 C 207.1 223.72 203.284 219.905 203.284 215.197 C 203.284 210.489 207.1 206.673 211.808 206.673 C 216.516 206.673 220.332 210.489 220.332 215.197 Z " fill="rgb(239,126,26)"/><path d=" M 206.216 211.406 L 204.898 221.809 L 216.246 220.439 L 218.475 207.695 L 206.216 211.406 Z " fill="rgb(255,255,255)"/><path d=" M 207.305 212.026 L 216.849 209.008 L 210.555 216.738 L 207.305 212.026 Z " fill-rule="evenodd" fill="rgb(239,126,26)"/><path d=" M 217.454 209.396 L 215.72 218.701 L 212.958 214.998 L 217.454 209.396 Z " fill-rule="evenodd" fill="rgb(239,126,26)"/><path d=" M 212.319 215.706 C 212.386 215.775 215.36 219.689 215.36 219.689 L 205.604 221 L 209.567 216.407 L 210.225 217.235 C 210.363 217.411 210.786 217.457 210.96 217.314 L 212.319 215.706 Z " fill-rule="evenodd" fill="rgb(239,126,26)"/><path d=" M 207.008 212.636 L 209.196 215.798 L 205.785 220.037 L 207.008 212.636 Z " fill-rule="evenodd" fill="rgb(239,126,26)"/></g><g><path d=" M 394.533 201.074 C 394.533 205.782 390.717 209.598 386.009 209.598 C 381.301 209.598 377.485 205.782 377.485 201.074 C 377.485 196.366 381.301 192.55 386.009 192.55 C 390.717 192.55 394.533 196.366 394.533 201.074 Z " fill="rgb(239,126,26)"/><path d=" M 380.416 197.283 L 379.099 207.686 L 390.446 206.316 L 392.675 193.572 L 380.416 197.283 Z " fill="rgb(255,255,255)"/><path d=" M 381.506 197.903 L 391.05 194.885 L 384.756 202.615 L 381.506 197.903 Z " fill-rule="evenodd" fill="rgb(239,126,26)"/><path d=" M 391.655 195.273 L 389.921 204.578 L 387.159 200.875 L 391.655 195.273 Z " fill-rule="evenodd" fill="rgb(239,126,26)"/><path d=" M 386.52 201.583 C 386.587 201.652 389.561 205.566 389.561 205.566 L 379.805 206.877 L 383.767 202.285 L 384.425 203.112 C 384.564 203.288 384.987 203.334 385.16 203.191 L 386.52 201.583 Z " fill-rule="evenodd" fill="rgb(239,126,26)"/><path d=" M 381.208 198.513 L 383.397 201.675 L 379.985 205.914 L 381.208 198.513 Z " fill-rule="evenodd" fill="rgb(239,126,26)"/></g><g><path d=" M 446.018 87.229 C 446.018 91.937 442.202 95.753 437.494 95.753 C 432.786 95.753 428.97 91.937 428.97 87.229 C 428.97 82.521 432.786 78.705 437.494 78.705 C 442.202 78.705 446.018 82.521 446.018 87.229 Z " fill="rgb(239,126,26)"/><path d=" M 431.901 83.438 L 430.584 93.841 L 441.931 92.471 L 444.16 79.727 L 431.901 83.438 Z " fill="rgb(255,255,255)"/><path d=" M 432.991 84.058 L 442.535 81.04 L 436.241 88.77 L 432.991 84.058 Z " fill-rule="evenodd" fill="rgb(239,126,26)"/><path d=" M 443.14 81.428 L 441.406 90.733 L 438.644 87.03 L 443.14 81.428 Z " fill-rule="evenodd" fill="rgb(239,126,26)"/><path d=" M 438.005 87.738 C 438.072 87.807 441.046 91.721 441.046 91.721 L 431.29 93.032 L 435.252 88.439 L 435.91 89.267 C 436.049 89.443 436.472 89.489 436.645 89.346 L 438.005 87.738 Z " fill-rule="evenodd" fill="rgb(239,126,26)"/><path d=" M 432.693 84.668 L 434.882 87.83 L 431.47 92.069 L 432.693 84.668 Z " fill-rule="evenodd" fill="rgb(239,126,26)"/></g><g><path d=" M 505.452 151.427 C 505.452 156.134 501.637 159.95 496.928 159.95 C 492.22 159.95 488.405 156.134 488.405 151.427 C 488.405 146.719 492.22 142.902 496.928 142.902 C 501.637 142.902 505.452 146.719 505.452 151.427 Z " fill="rgb(239,126,26)"/><path d=" M 491.336 147.636 L 490.019 158.038 L 501.366 156.668 L 503.595 143.925 L 491.336 147.636 Z " fill="rgb(255,255,255)"/><path d=" M 492.426 148.256 L 501.969 145.238 L 495.676 152.968 L 492.426 148.256 Z " fill-rule="evenodd" fill="rgb(239,126,26)"/><path d=" M 502.575 145.625 L 500.841 154.93 L 498.079 151.228 L 502.575 145.625 Z " fill-rule="evenodd" fill="rgb(239,126,26)"/><path d=" M 497.439 151.935 C 497.506 152.005 500.481 155.919 500.481 155.919 L 490.725 157.23 L 494.687 152.637 L 495.345 153.464 C 495.484 153.64 495.907 153.686 496.08 153.544 L 497.439 151.935 Z " fill-rule="evenodd" fill="rgb(239,126,26)"/><path d=" M 492.128 148.865 L 494.317 152.028 L 490.905 156.266 L 492.128 148.865 Z " fill-rule="evenodd" fill="rgb(239,126,26)"/></g><g><path d=" M 571.907 245.159 C 571.907 249.867 568.091 253.683 563.383 253.683 C 558.675 253.683 554.859 249.867 554.859 245.159 C 554.859 240.451 558.675 236.635 563.383 236.635 C 568.091 236.635 571.907 240.451 571.907 245.159 Z " fill="rgb(239,126,26)"/><path d=" M 557.791 241.369 L 556.474 251.771 L 567.821 250.401 L 570.05 237.658 L 557.791 241.369 Z " fill="rgb(255,255,255)"/><path d=" M 558.881 241.989 L 568.424 238.971 L 562.131 246.701 L 558.881 241.989 Z " fill-rule="evenodd" fill="rgb(239,126,26)"/><path d=" M 569.03 239.358 L 567.296 248.663 L 564.533 244.96 L 569.03 239.358 Z " fill-rule="evenodd" fill="rgb(239,126,26)"/><path d=" M 563.894 245.668 C 563.961 245.737 566.935 249.652 566.935 249.652 L 557.18 250.963 L 561.142 246.37 L 561.8 247.197 C 561.938 247.373 562.361 247.419 562.535 247.277 L 563.894 245.668 Z " fill-rule="evenodd" fill="rgb(239,126,26)"/><path d=" M 558.583 242.598 L 560.772 245.76 L 557.36 249.999 L 558.583 242.598 Z " fill-rule="evenodd" fill="rgb(239,126,26)"/></g><g><path d=" M 455.709 303.955 C 455.709 308.663 451.893 312.479 447.185 312.479 C 442.477 312.479 438.661 308.663 438.661 303.955 C 438.661 299.247 442.477 295.431 447.185 295.431 C 451.893 295.431 455.709 299.247 455.709 303.955 Z " fill="rgb(239,126,26)"/><path d=" M 441.592 300.164 L 440.275 310.567 L 451.622 309.197 L 453.851 296.453 L 441.592 300.164 Z " fill="rgb(255,255,255)"/><path d=" M 442.682 300.784 L 452.226 297.766 L 445.932 305.496 L 442.682 300.784 Z " fill-rule="evenodd" fill="rgb(239,126,26)"/><path d=" M 452.831 298.154 L 451.097 307.459 L 448.335 303.756 L 452.831 298.154 Z " fill-rule="evenodd" fill="rgb(239,126,26)"/><path d=" M 447.696 304.464 C 447.763 304.533 450.737 308.447 450.737 308.447 L 440.981 309.758 L 444.943 305.166 L 445.601 305.993 C 445.74 306.169 446.163 306.215 446.336 306.072 L 447.696 304.464 Z " fill-rule="evenodd" fill="rgb(239,126,26)"/><path d=" M 442.384 301.394 L 444.573 304.556 L 441.161 308.795 L 442.384 301.394 Z " fill-rule="evenodd" fill="rgb(239,126,26)"/></g><g><path d=" M 522.163 345.077 C 522.163 349.785 518.347 353.601 513.639 353.601 C 508.931 353.601 505.115 349.785 505.115 345.077 C 505.115 340.369 508.931 336.553 513.639 336.553 C 518.347 336.553 522.163 340.369 522.163 345.077 Z " fill="rgb(239,126,26)"/><path d=" M 508.047 341.286 L 506.73 351.689 L 518.077 350.319 L 520.306 337.575 L 508.047 341.286 Z " fill="rgb(255,255,255)"/><path d=" M 509.137 341.906 L 518.68 338.888 L 512.387 346.618 L 509.137 341.906 Z " fill-rule="evenodd" fill="rgb(239,126,26)"/><path d=" M 519.286 339.276 L 517.552 348.581 L 514.789 344.878 L 519.286 339.276 Z " fill-rule="evenodd" fill="rgb(239,126,26)"/><path d=" M 514.15 345.586 C 514.217 345.655 517.191 349.569 517.191 349.569 L 507.436 350.88 L 511.398 346.288 L 512.056 347.115 C 512.194 347.291 512.618 347.337 512.791 347.194 L 514.15 345.586 Z " fill-rule="evenodd" fill="rgb(239,126,26)"/><path d=" M 508.839 342.516 L 511.028 345.678 L 507.616 349.917 L 508.839 342.516 Z " fill-rule="evenodd" fill="rgb(239,126,26)"/></g><g><path d=" M 558.37 398.65 C 558.37 403.358 554.555 407.174 549.846 407.174 C 545.138 407.174 541.323 403.358 541.323 398.65 C 541.323 393.942 545.138 390.126 549.846 390.126 C 554.555 390.126 558.37 393.942 558.37 398.65 Z " fill="rgb(239,126,26)"/><path d=" M 544.254 394.86 L 542.937 405.262 L 554.284 403.892 L 556.513 391.149 L 544.254 394.86 Z " fill="rgb(255,255,255)"/><path d=" M 545.344 395.48 L 554.887 392.462 L 548.594 400.192 L 545.344 395.48 Z " fill-rule="evenodd" fill="rgb(239,126,26)"/><path d=" M 555.493 392.849 L 553.759 402.154 L 550.997 398.451 L 555.493 392.849 Z " fill-rule="evenodd" fill="rgb(239,126,26)"/><path d=" M 550.357 399.159 C 550.424 399.228 553.399 403.143 553.399 403.143 L 543.643 404.454 L 547.605 399.861 L 548.263 400.688 C 548.402 400.864 548.825 400.91 548.998 400.768 L 550.357 399.159 Z " fill-rule="evenodd" fill="rgb(239,126,26)"/><path d=" M 545.046 396.089 L 547.235 399.251 L 543.823 403.49 L 545.046 396.089 Z " fill-rule="evenodd" fill="rgb(239,126,26)"/></g><g><path d=" M 487.663 211.93 C 487.663 214.498 485.581 216.579 483.013 216.579 C 480.445 216.579 478.364 214.498 478.364 211.93 C 478.364 209.362 480.445 207.281 483.013 207.281 C 485.581 207.281 487.663 209.362 487.663 211.93 Z " fill="rgb(239,126,26)"/><path d=" M 479.963 209.863 L 479.244 215.537 L 485.434 214.789 L 486.65 207.838 L 479.963 209.863 Z " fill="rgb(255,255,255)"/><path d=" M 480.557 210.201 L 485.763 208.555 L 482.33 212.771 L 480.557 210.201 Z " fill-rule="evenodd" fill="rgb(239,126,26)"/><path d=" M 486.093 208.766 L 485.147 213.841 L 483.641 211.822 L 486.093 208.766 Z " fill-rule="evenodd" fill="rgb(239,126,26)"/><path d=" M 483.292 212.208 C 483.329 212.245 484.951 214.381 484.951 214.381 L 479.63 215.096 L 481.791 212.591 L 482.15 213.042 C 482.225 213.138 482.456 213.163 482.551 213.085 L 483.292 212.208 Z " fill-rule="evenodd" fill="rgb(239,126,26)"/><path d=" M 480.395 210.533 L 481.589 212.258 L 479.728 214.57 L 480.395 210.533 Z " fill-rule="evenodd" fill="rgb(239,126,26)"/></g><g><path d=" M 569.056 99.252 C 569.056 101.82 566.974 103.901 564.406 103.901 C 561.838 103.901 559.757 101.82 559.757 99.252 C 559.757 96.684 561.838 94.602 564.406 94.602 C 566.974 94.602 569.056 96.684 569.056 99.252 Z " fill="rgb(239,126,26)"/><path d=" M 561.356 97.184 L 560.637 102.858 L 566.827 102.111 L 568.043 95.16 L 561.356 97.184 Z " fill="rgb(255,255,255)"/><path d=" M 561.95 97.523 L 567.156 95.876 L 563.723 100.093 L 561.95 97.523 Z " fill-rule="evenodd" fill="rgb(239,126,26)"/><path d=" M 567.486 96.088 L 566.54 101.163 L 565.034 99.144 L 567.486 96.088 Z " fill-rule="evenodd" fill="rgb(239,126,26)"/><path d=" M 564.685 99.53 C 564.722 99.567 566.344 101.702 566.344 101.702 L 561.023 102.417 L 563.184 99.912 L 563.543 100.364 C 563.618 100.46 563.849 100.485 563.944 100.407 L 564.685 99.53 Z " fill-rule="evenodd" fill="rgb(239,126,26)"/><path d=" M 561.788 97.855 L 562.982 99.58 L 561.121 101.892 L 561.788 97.855 Z " fill-rule="evenodd" fill="rgb(239,126,26)"/></g><g><path d=" M 634.529 51.493 C 634.529 56.201 630.714 60.017 626.006 60.017 C 621.298 60.017 617.482 56.201 617.482 51.493 C 617.482 46.785 621.298 42.969 626.006 42.969 C 630.714 42.969 634.529 46.785 634.529 51.493 Z " fill="rgb(239,126,26)"/><path d=" M 620.413 47.702 L 619.096 58.105 L 630.443 56.735 L 632.672 43.991 L 620.413 47.702 Z " fill="rgb(255,255,255)"/><path d=" M 621.503 48.322 L 631.047 45.304 L 624.753 53.034 L 621.503 48.322 Z " fill-rule="evenodd" fill="rgb(239,126,26)"/><path d=" M 631.652 45.692 L 629.918 54.997 L 627.156 51.294 L 631.652 45.692 Z " fill-rule="evenodd" fill="rgb(239,126,26)"/><path d=" M 626.517 52.002 C 626.584 52.071 629.558 55.985 629.558 55.985 L 619.802 57.296 L 623.764 52.704 L 624.422 53.531 C 624.561 53.707 624.984 53.753 625.157 53.61 L 626.517 52.002 Z " fill-rule="evenodd" fill="rgb(239,126,26)"/><path d=" M 621.205 48.932 L 623.394 52.094 L 619.982 56.333 L 621.205 48.932 Z " fill-rule="evenodd" fill="rgb(239,126,26)"/></g><g><path d=" M 722.499 29.458 C 722.499 34.166 718.683 37.982 713.975 37.982 C 709.267 37.982 705.451 34.166 705.451 29.458 C 705.451 24.751 709.267 20.934 713.975 20.934 C 718.683 20.934 722.499 24.751 722.499 29.458 Z " fill="rgb(239,126,26)"/><path d=" M 708.383 25.668 L 707.066 36.07 L 718.413 34.7 L 720.642 21.957 L 708.383 25.668 Z " fill="rgb(255,255,255)"/><path d=" M 709.472 26.288 L 719.016 23.27 L 712.723 31 L 709.472 26.288 Z " fill-rule="evenodd" fill="rgb(239,126,26)"/><path d=" M 719.621 23.657 L 717.888 32.962 L 715.125 29.259 L 719.621 23.657 Z " fill-rule="evenodd" fill="rgb(239,126,26)"/><path d=" M 714.486 29.967 C 714.553 30.036 717.527 33.951 717.527 33.951 L 707.772 35.262 L 711.734 30.669 L 712.392 31.496 C 712.53 31.672 712.953 31.718 713.127 31.576 L 714.486 29.967 Z " fill-rule="evenodd" fill="rgb(239,126,26)"/><path d=" M 709.175 26.897 L 711.363 30.059 L 707.952 34.298 L 709.175 26.897 Z " fill-rule="evenodd" fill="rgb(239,126,26)"/></g></g></svg>