<?xml version="1.0" encoding="UTF-8" standalone="no"?><!-- Generator: Gravit.io --><svg xmlns="http://www.w3.org/2000/svg" xmlns:xlink="http://www.w3.org/1999/xlink" style="isolation:isolate" viewBox="0 0 17.048 17.048" width="17.048pt" height="17.048pt"><defs><clipPath id="_clipPath_17qpjP5kg6lU4EP2bhNOuvTqs5wh6nvL"><rect width="17.048" height="17.048"/></clipPath></defs><g clip-path="url(#_clipPath_17qpjP5kg6lU4EP2bhNOuvTqs5wh6nvL)"><path d=" M 17.008 8.504 C 17.008 13.201 13.201 17.008 8.504 17.008 C 3.807 17.008 0 13.201 0 8.504 C 0 3.807 3.807 0 8.504 0 C 13.201 0 17.008 3.807 17.008 8.504 Z " fill="rgb(239,126,26)"/><path d=" M 2.925 4.723 L 1.611 15.1 L 12.931 13.734 L 15.155 1.02 L 2.925 4.723 Z " fill="rgb(255,255,255)"/><path d=" M 4.012 5.341 L 13.533 2.33 L 7.254 10.042 L 4.012 5.341 Z " fill-rule="evenodd" fill="rgb(239,126,26)"/><path d=" M 14.137 2.717 L 12.407 12 L 9.651 8.306 L 14.137 2.717 Z " fill-rule="evenodd" fill="rgb(239,126,26)"/><path d=" M 9.014 9.012 C 9.081 9.081 12.048 12.986 12.048 12.986 L 2.315 14.294 L 6.268 9.712 L 6.924 10.537 C 7.062 10.713 7.484 10.759 7.658 10.617 L 9.014 9.012 Z " fill-rule="evenodd" fill="rgb(239,126,26)"/><path d=" M 3.715 5.949 L 5.898 9.104 L 2.495 13.333 L 3.715 5.949 Z " fill-rule="evenodd" fill="rgb(239,126,26)"/></g></svg>